<?xml version="1.0" encoding="UTF-8"?>
<svg id="Calque_1" data-name="Calque 1" xmlns="http://www.w3.org/2000/svg" viewBox="0 0 74.93 64.82">
  <defs>
    <style>
      .cls-1 {
        fill: #efefef;
      }
    </style>
  </defs>
  <path class="cls-1" d="M64.19,15.12c-2.85-1.42-6.75-.95-10.27.53.24-5.51.08-9.2.07-9.29l-.02-.37H7.08s-.02.37-.02.37c0,.19-.9,19.53,4.44,36.27,3.54,11.12,9.69,15.92,9.95,16.12l.1.08h17.96l.11-.08c.26-.2,6.4-4.99,9.95-16.12.06-.18.11-.37.17-.55,7.31-3.46,16.94-8.23,18.21-17.79.79-5.97-2.01-8.31-3.75-9.17ZM25.34,51.93h-.21l4.27-18.04h-10.6l17.93-24.16h.21l-4.27,18.04h10.6l-17.93,24.16ZM64.07,23.78c-.85,6.41-6.97,10.3-12.98,13.31,1.41-5.93,2.17-11.89,2.56-16.96,3.1-1.76,6.81-2.51,8.8-1.52,1.44.71,1.98,2.45,1.62,5.17Z"/>
</svg>
