<?xml version="1.0" encoding="UTF-8"?>
<svg id="Calque_1" data-name="Calque 1" xmlns="http://www.w3.org/2000/svg" viewBox="0 0 74.93 64.82">
  <defs>
    <style>
      .cls-1 {
        fill: #efefef;
      }
    </style>
  </defs>
  <path class="cls-1" d="M64.19,15.12c-2.85-1.42-6.75-.95-10.27.53.24-5.51.08-9.2.07-9.29l-.02-.37H7.08s-.02.37-.02.37c0,.19-.9,19.53,4.44,36.27,3.54,11.12,9.69,15.92,9.95,16.12l.1.08h17.96l.11-.08c.26-.2,6.4-4.99,9.95-16.12.06-.18.11-.37.17-.55,7.31-3.46,16.94-8.23,18.21-17.79.79-5.97-2.01-8.31-3.75-9.17ZM47.23,35.55c-1.21,4.05-3.92,7.49-7.58,9.6-3.8,2.19-8.32,2.79-12.56,1.65-4.24-1.14-7.85-3.91-10.05-7.71s-2.79-8.31-1.65-12.55c1.14-4.24,3.91-7.85,7.71-10.04,2.52-1.45,5.35-2.22,8.21-2.22h0c1.3,0,2.61.14,3.89.45.21.05.37.21.42.42.07.31-.12.61-.42.69-1.06.26-2.08.67-3.02,1.21-2.65,1.53-4.58,4.04-5.37,6.99-.79,2.95-.38,6.09,1.15,8.74,1.53,2.65,4.05,4.58,7,5.37,2.95.79,6.1.38,8.74-1.15.94-.55,1.81-1.23,2.56-2.02.15-.15.37-.21.58-.15.3.09.47.41.38.71ZM64.07,23.78c-.85,6.41-6.97,10.3-12.98,13.31,1.41-5.93,2.17-11.89,2.56-16.96,3.1-1.76,6.81-2.51,8.8-1.52,1.44.71,1.98,2.45,1.62,5.17Z"/>
</svg>
